<svg xmlns="http://www.w3.org/2000/svg" viewBox="0 0 100 100" fill="none" stroke="currentColor" stroke-width="1.3" stroke-linecap="round" stroke-linejoin="round">
  <title>amp-halfstack-overhead</title>
  <rect x="16.0" y="43.0" width="68.0" height="32.0" rx="2.5"/>
  <rect x="16.0" y="43.0" width="3.8" height="3.8" rx="0.9" fill="currentColor" stroke="none"/>
  <rect x="80.2" y="43.0" width="3.8" height="3.8" rx="0.9" fill="currentColor" stroke="none"/>
  <rect x="16.0" y="71.2" width="3.8" height="3.8" rx="0.9" fill="currentColor" stroke="none"/>
  <rect x="80.2" y="71.2" width="3.8" height="3.8" rx="0.9" fill="currentColor" stroke="none"/>
  <rect x="15.5" y="53.0" width="3" height="12" rx="1.3"/>
  <rect x="81.5" y="53.0" width="3" height="12" rx="1.3"/>
  <line x1="20.0" y1="71.6" x2="80.0" y2="71.6"/>
  <rect x="23.0" y="46.0" width="54.0" height="17.0" rx="2"/>
  <rect x="23.0" y="46.0" width="3.2" height="3.2" rx="0.9" fill="currentColor" stroke="none"/>
  <rect x="73.8" y="46.0" width="3.2" height="3.2" rx="0.9" fill="currentColor" stroke="none"/>
  <rect x="23.0" y="59.8" width="3.2" height="3.2" rx="0.9" fill="currentColor" stroke="none"/>
  <rect x="73.8" y="59.8" width="3.2" height="3.2" rx="0.9" fill="currentColor" stroke="none"/>
  <rect x="29.0" y="48.4" width="42.0" height="5.8" rx="1.1"/>
  <circle cx="32.00" cy="51.30" r="1.5"/>
  <circle cx="39.20" cy="51.30" r="1.5"/>
  <circle cx="46.40" cy="51.30" r="1.5"/>
  <circle cx="53.60" cy="51.30" r="1.5"/>
  <circle cx="60.80" cy="51.30" r="1.5"/>
  <circle cx="68.00" cy="51.30" r="1.5"/>
  <rect x="43.5" y="56.5" width="13.0" height="2.6" rx="1.3"/>
</svg>
