<svg xmlns="http://www.w3.org/2000/svg" viewBox="0 0 100 100" fill="none" stroke="currentColor" stroke-width="1.3" stroke-linecap="round" stroke-linejoin="round">
  <title>amp-medium-overhead</title>
  <rect x="17.0" y="35.5" width="66.0" height="29.0" rx="2.5"/>
  <rect x="17.0" y="35.5" width="3.8" height="3.8" rx="0.9" fill="currentColor" stroke="none"/>
  <rect x="79.2" y="35.5" width="3.8" height="3.8" rx="0.9" fill="currentColor" stroke="none"/>
  <rect x="17.0" y="60.7" width="3.8" height="3.8" rx="0.9" fill="currentColor" stroke="none"/>
  <rect x="79.2" y="60.7" width="3.8" height="3.8" rx="0.9" fill="currentColor" stroke="none"/>
  <rect x="23.0" y="37.9" width="54.0" height="5.8" rx="1.1"/>
  <circle cx="26.00" cy="40.80" r="1.5"/>
  <circle cx="32.86" cy="40.80" r="1.5"/>
  <circle cx="39.71" cy="40.80" r="1.5"/>
  <circle cx="46.57" cy="40.80" r="1.5"/>
  <circle cx="53.43" cy="40.80" r="1.5"/>
  <circle cx="60.29" cy="40.80" r="1.5"/>
  <circle cx="67.14" cy="40.80" r="1.5"/>
  <circle cx="74.00" cy="40.80" r="1.5"/>
  <rect x="41.4" y="50.6" width="17.2" height="2.8" rx="1.4"/>
  <line x1="20.0" y1="61.3" x2="80.0" y2="61.3"/>
</svg>
