<svg xmlns="http://www.w3.org/2000/svg" viewBox="0 0 100 100" fill="none" stroke="currentColor" stroke-width="1.3" stroke-linecap="round" stroke-linejoin="round">
  <title>stage-rack-overhead</title>
  <rect x="8" y="19" width="84" height="62" rx="3.5"/>
  <rect x="6" y="40" width="3" height="20" rx="1.2"/>
  <rect x="91" y="40" width="3" height="20" rx="1.2"/>
  <rect x="33" y="24" width="34" height="12" rx="1.6"/>
  <rect x="35.4" y="26" width="29.2" height="8" rx="1"/>
  <rect x="31" y="36" width="38" height="13" rx="1.6"/>
  <line x1="34" y1="39.0" x2="66" y2="39.0"/>
  <line x1="34" y1="41.2" x2="66" y2="41.2"/>
  <line x1="34" y1="43.4" x2="66" y2="43.4"/>
  <rect x="45.5" y="45" width="9" height="3" rx="0.8" fill="currentColor" stroke="none"/>
  <line x1="12" y1="52.5" x2="88" y2="52.5"/>
  <line x1="16.57" y1="56" x2="16.57" y2="75"/>
  <rect x="14.97" y="64" width="3.2" height="2.4" rx="0.5" fill="currentColor" stroke="none"/>
  <line x1="21.71" y1="56" x2="21.71" y2="75"/>
  <rect x="20.11" y="64" width="3.2" height="2.4" rx="0.5" fill="currentColor" stroke="none"/>
  <line x1="26.86" y1="56" x2="26.86" y2="75"/>
  <rect x="25.26" y="64" width="3.2" height="2.4" rx="0.5" fill="currentColor" stroke="none"/>
  <line x1="32.00" y1="56" x2="32.00" y2="75"/>
  <rect x="30.40" y="64" width="3.2" height="2.4" rx="0.5" fill="currentColor" stroke="none"/>
  <line x1="37.14" y1="56" x2="37.14" y2="75"/>
  <rect x="35.54" y="64" width="3.2" height="2.4" rx="0.5" fill="currentColor" stroke="none"/>
  <line x1="42.29" y1="56" x2="42.29" y2="75"/>
  <rect x="40.69" y="64" width="3.2" height="2.4" rx="0.5" fill="currentColor" stroke="none"/>
  <line x1="47.43" y1="56" x2="47.43" y2="75"/>
  <rect x="45.83" y="64" width="3.2" height="2.4" rx="0.5" fill="currentColor" stroke="none"/>
  <line x1="52.57" y1="56" x2="52.57" y2="75"/>
  <rect x="50.97" y="64" width="3.2" height="2.4" rx="0.5" fill="currentColor" stroke="none"/>
  <line x1="57.71" y1="56" x2="57.71" y2="75"/>
  <rect x="56.11" y="64" width="3.2" height="2.4" rx="0.5" fill="currentColor" stroke="none"/>
  <line x1="62.86" y1="56" x2="62.86" y2="75"/>
  <rect x="61.26" y="64" width="3.2" height="2.4" rx="0.5" fill="currentColor" stroke="none"/>
  <line x1="68.00" y1="56" x2="68.00" y2="75"/>
  <rect x="66.40" y="64" width="3.2" height="2.4" rx="0.5" fill="currentColor" stroke="none"/>
  <line x1="73.14" y1="56" x2="73.14" y2="75"/>
  <rect x="71.54" y="64" width="3.2" height="2.4" rx="0.5" fill="currentColor" stroke="none"/>
  <line x1="78.29" y1="56" x2="78.29" y2="75"/>
  <rect x="76.69" y="64" width="3.2" height="2.4" rx="0.5" fill="currentColor" stroke="none"/>
  <line x1="83.43" y1="56" x2="83.43" y2="75"/>
  <rect x="81.83" y="64" width="3.2" height="2.4" rx="0.5" fill="currentColor" stroke="none"/>
</svg>
