<svg xmlns="http://www.w3.org/2000/svg" viewBox="0 0 100 100" fill="none" stroke="currentColor" stroke-width="1.3" stroke-linecap="round" stroke-linejoin="round">
  <title>25-key keyboard (overhead)</title>
  <rect x="23.0" y="28" width="54" height="44" rx="2.5"/>
  <line x1="23.0" y1="50" x2="77.0" y2="50"/>
  <rect x="26.50" y="32" width="3.0" height="14" rx="1.4"/>
  <rect x="30.90" y="32" width="3.0" height="14" rx="1.4"/>
  <rect x="36.40" y="33" width="9" height="8" rx="1"/>
  <g>
    <line x1="52.50" y1="31.5" x2="52.50" y2="37"/>
    <rect x="51.40" y="33" width="2.2" height="2" rx="0.6"/>
    <circle cx="52.50" cy="43.2" r="1.5"/>
    <line x1="52.50" y1="41.7" x2="52.50" y2="42.6"/>
    <line x1="60.70" y1="31.5" x2="60.70" y2="37"/>
    <rect x="59.60" y="33" width="2.2" height="2" rx="0.6"/>
    <circle cx="60.70" cy="43.2" r="1.5"/>
    <line x1="60.70" y1="41.7" x2="60.70" y2="42.6"/>
    <line x1="68.90" y1="31.5" x2="68.90" y2="37"/>
    <rect x="67.80" y="33" width="2.2" height="2" rx="0.6"/>
    <circle cx="68.90" cy="43.2" r="1.5"/>
    <line x1="68.90" y1="41.7" x2="68.90" y2="42.6"/>
  </g>
  <rect x="26.00" y="50" width="48.00" height="20"/>
  <g>
    <line x1="29.200" y1="50" x2="29.200" y2="70"/>
    <line x1="32.400" y1="50" x2="32.400" y2="70"/>
    <line x1="35.600" y1="50" x2="35.600" y2="70"/>
    <line x1="38.800" y1="50" x2="38.800" y2="70"/>
    <line x1="42.000" y1="50" x2="42.000" y2="70"/>
    <line x1="45.200" y1="50" x2="45.200" y2="70"/>
    <line x1="48.400" y1="50" x2="48.400" y2="70"/>
    <line x1="51.600" y1="50" x2="51.600" y2="70"/>
    <line x1="54.800" y1="50" x2="54.800" y2="70"/>
    <line x1="58.000" y1="50" x2="58.000" y2="70"/>
    <line x1="61.200" y1="50" x2="61.200" y2="70"/>
    <line x1="64.400" y1="50" x2="64.400" y2="70"/>
    <line x1="67.600" y1="50" x2="67.600" y2="70"/>
    <line x1="70.800" y1="50" x2="70.800" y2="70"/>
  </g>
  <g fill="currentColor" stroke="none">
    <rect x="28.400" y="50" width="1.600" height="11.600" rx="0.3"/>
    <rect x="31.600" y="50" width="1.600" height="11.600" rx="0.3"/>
    <rect x="38.000" y="50" width="1.600" height="11.600" rx="0.3"/>
    <rect x="41.200" y="50" width="1.600" height="11.600" rx="0.3"/>
    <rect x="44.400" y="50" width="1.600" height="11.600" rx="0.3"/>
    <rect x="50.800" y="50" width="1.600" height="11.600" rx="0.3"/>
    <rect x="54.000" y="50" width="1.600" height="11.600" rx="0.3"/>
    <rect x="60.400" y="50" width="1.600" height="11.600" rx="0.3"/>
    <rect x="63.600" y="50" width="1.600" height="11.600" rx="0.3"/>
    <rect x="66.800" y="50" width="1.600" height="11.600" rx="0.3"/>
  </g>
</svg>
