<svg xmlns="http://www.w3.org/2000/svg" viewBox="0 0 100 100" fill="none" stroke="currentColor" stroke-width="1.3" stroke-linecap="round" stroke-linejoin="round">
  <title>61-key keyboard (overhead)</title>
  <rect x="6.0" y="28" width="88" height="44" rx="2.5"/>
  <line x1="6.0" y1="50" x2="94.0" y2="50"/>
  <rect x="9.50" y="32" width="3.5" height="14" rx="1.4"/>
  <rect x="14.40" y="32" width="3.5" height="14" rx="1.4"/>
  <rect x="20.40" y="33" width="16" height="8" rx="1"/>
  <g>
    <line x1="43.62" y1="31.5" x2="43.62" y2="37"/>
    <rect x="42.52" y="33" width="2.2" height="2" rx="0.6"/>
    <circle cx="43.62" cy="43.2" r="1.5"/>
    <line x1="43.62" y1="41.7" x2="43.62" y2="42.6"/>
    <line x1="52.05" y1="31.5" x2="52.05" y2="37"/>
    <rect x="50.95" y="33" width="2.2" height="2" rx="0.6"/>
    <circle cx="52.05" cy="43.2" r="1.5"/>
    <line x1="52.05" y1="41.7" x2="52.05" y2="42.6"/>
    <line x1="60.48" y1="31.5" x2="60.48" y2="37"/>
    <rect x="59.38" y="33" width="2.2" height="2" rx="0.6"/>
    <circle cx="60.48" cy="43.2" r="1.5"/>
    <line x1="60.48" y1="41.7" x2="60.48" y2="42.6"/>
    <line x1="68.92" y1="31.5" x2="68.92" y2="37"/>
    <rect x="67.82" y="33" width="2.2" height="2" rx="0.6"/>
    <circle cx="68.92" cy="43.2" r="1.5"/>
    <line x1="68.92" y1="41.7" x2="68.92" y2="42.6"/>
    <line x1="77.35" y1="31.5" x2="77.35" y2="37"/>
    <rect x="76.25" y="33" width="2.2" height="2" rx="0.6"/>
    <circle cx="77.35" cy="43.2" r="1.5"/>
    <line x1="77.35" y1="41.7" x2="77.35" y2="42.6"/>
    <line x1="85.78" y1="31.5" x2="85.78" y2="37"/>
    <rect x="84.68" y="33" width="2.2" height="2" rx="0.6"/>
    <circle cx="85.78" cy="43.2" r="1.5"/>
    <line x1="85.78" y1="41.7" x2="85.78" y2="42.6"/>
  </g>
  <rect x="9.00" y="50" width="82.00" height="20"/>
  <g>
    <line x1="11.278" y1="50" x2="11.278" y2="70"/>
    <line x1="13.556" y1="50" x2="13.556" y2="70"/>
    <line x1="15.833" y1="50" x2="15.833" y2="70"/>
    <line x1="18.111" y1="50" x2="18.111" y2="70"/>
    <line x1="20.389" y1="50" x2="20.389" y2="70"/>
    <line x1="22.667" y1="50" x2="22.667" y2="70"/>
    <line x1="24.944" y1="50" x2="24.944" y2="70"/>
    <line x1="27.222" y1="50" x2="27.222" y2="70"/>
    <line x1="29.500" y1="50" x2="29.500" y2="70"/>
    <line x1="31.778" y1="50" x2="31.778" y2="70"/>
    <line x1="34.056" y1="50" x2="34.056" y2="70"/>
    <line x1="36.333" y1="50" x2="36.333" y2="70"/>
    <line x1="38.611" y1="50" x2="38.611" y2="70"/>
    <line x1="40.889" y1="50" x2="40.889" y2="70"/>
    <line x1="43.167" y1="50" x2="43.167" y2="70"/>
    <line x1="45.444" y1="50" x2="45.444" y2="70"/>
    <line x1="47.722" y1="50" x2="47.722" y2="70"/>
    <line x1="50.000" y1="50" x2="50.000" y2="70"/>
    <line x1="52.278" y1="50" x2="52.278" y2="70"/>
    <line x1="54.556" y1="50" x2="54.556" y2="70"/>
    <line x1="56.833" y1="50" x2="56.833" y2="70"/>
    <line x1="59.111" y1="50" x2="59.111" y2="70"/>
    <line x1="61.389" y1="50" x2="61.389" y2="70"/>
    <line x1="63.667" y1="50" x2="63.667" y2="70"/>
    <line x1="65.944" y1="50" x2="65.944" y2="70"/>
    <line x1="68.222" y1="50" x2="68.222" y2="70"/>
    <line x1="70.500" y1="50" x2="70.500" y2="70"/>
    <line x1="72.778" y1="50" x2="72.778" y2="70"/>
    <line x1="75.056" y1="50" x2="75.056" y2="70"/>
    <line x1="77.333" y1="50" x2="77.333" y2="70"/>
    <line x1="79.611" y1="50" x2="79.611" y2="70"/>
    <line x1="81.889" y1="50" x2="81.889" y2="70"/>
    <line x1="84.167" y1="50" x2="84.167" y2="70"/>
    <line x1="86.444" y1="50" x2="86.444" y2="70"/>
    <line x1="88.722" y1="50" x2="88.722" y2="70"/>
  </g>
  <g fill="currentColor" stroke="none">
    <rect x="10.651" y="50" width="1.253" height="11.600" rx="0.3"/>
    <rect x="12.929" y="50" width="1.253" height="11.600" rx="0.3"/>
    <rect x="17.485" y="50" width="1.253" height="11.600" rx="0.3"/>
    <rect x="19.762" y="50" width="1.253" height="11.600" rx="0.3"/>
    <rect x="22.040" y="50" width="1.253" height="11.600" rx="0.3"/>
    <rect x="26.596" y="50" width="1.253" height="11.600" rx="0.3"/>
    <rect x="28.874" y="50" width="1.253" height="11.600" rx="0.3"/>
    <rect x="33.429" y="50" width="1.253" height="11.600" rx="0.3"/>
    <rect x="35.707" y="50" width="1.253" height="11.600" rx="0.3"/>
    <rect x="37.985" y="50" width="1.253" height="11.600" rx="0.3"/>
    <rect x="42.540" y="50" width="1.253" height="11.600" rx="0.3"/>
    <rect x="44.818" y="50" width="1.253" height="11.600" rx="0.3"/>
    <rect x="49.374" y="50" width="1.253" height="11.600" rx="0.3"/>
    <rect x="51.651" y="50" width="1.253" height="11.600" rx="0.3"/>
    <rect x="53.929" y="50" width="1.253" height="11.600" rx="0.3"/>
    <rect x="58.485" y="50" width="1.253" height="11.600" rx="0.3"/>
    <rect x="60.762" y="50" width="1.253" height="11.600" rx="0.3"/>
    <rect x="65.318" y="50" width="1.253" height="11.600" rx="0.3"/>
    <rect x="67.596" y="50" width="1.253" height="11.600" rx="0.3"/>
    <rect x="69.874" y="50" width="1.253" height="11.600" rx="0.3"/>
    <rect x="74.429" y="50" width="1.253" height="11.600" rx="0.3"/>
    <rect x="76.707" y="50" width="1.253" height="11.600" rx="0.3"/>
    <rect x="81.263" y="50" width="1.253" height="11.600" rx="0.3"/>
    <rect x="83.540" y="50" width="1.253" height="11.600" rx="0.3"/>
    <rect x="85.818" y="50" width="1.253" height="11.600" rx="0.3"/>
  </g>
</svg>
