<svg xmlns="http://www.w3.org/2000/svg" viewBox="0 0 100 100" fill="none" stroke="currentColor" stroke-width="1.3" stroke-linecap="round" stroke-linejoin="round">
  <title>88-key keyboard (overhead)</title>
  <rect x="3.0" y="28" width="94" height="44" rx="2.5"/>
  <line x1="3.0" y1="50" x2="97.0" y2="50"/>
  <rect x="6.50" y="32" width="3.5" height="14" rx="1.4"/>
  <rect x="11.40" y="32" width="3.5" height="14" rx="1.4"/>
  <rect x="17.40" y="33" width="16" height="8" rx="1"/>
  <g>
    <line x1="41.12" y1="31.5" x2="41.12" y2="37"/>
    <rect x="40.02" y="33" width="2.2" height="2" rx="0.6"/>
    <circle cx="41.12" cy="43.2" r="1.5"/>
    <line x1="41.12" y1="41.7" x2="41.12" y2="42.6"/>
    <line x1="50.55" y1="31.5" x2="50.55" y2="37"/>
    <rect x="49.45" y="33" width="2.2" height="2" rx="0.6"/>
    <circle cx="50.55" cy="43.2" r="1.5"/>
    <line x1="50.55" y1="41.7" x2="50.55" y2="42.6"/>
    <line x1="59.98" y1="31.5" x2="59.98" y2="37"/>
    <rect x="58.88" y="33" width="2.2" height="2" rx="0.6"/>
    <circle cx="59.98" cy="43.2" r="1.5"/>
    <line x1="59.98" y1="41.7" x2="59.98" y2="42.6"/>
    <line x1="69.42" y1="31.5" x2="69.42" y2="37"/>
    <rect x="68.32" y="33" width="2.2" height="2" rx="0.6"/>
    <circle cx="69.42" cy="43.2" r="1.5"/>
    <line x1="69.42" y1="41.7" x2="69.42" y2="42.6"/>
    <line x1="78.85" y1="31.5" x2="78.85" y2="37"/>
    <rect x="77.75" y="33" width="2.2" height="2" rx="0.6"/>
    <circle cx="78.85" cy="43.2" r="1.5"/>
    <line x1="78.85" y1="41.7" x2="78.85" y2="42.6"/>
    <line x1="88.28" y1="31.5" x2="88.28" y2="37"/>
    <rect x="87.18" y="33" width="2.2" height="2" rx="0.6"/>
    <circle cx="88.28" cy="43.2" r="1.5"/>
    <line x1="88.28" y1="41.7" x2="88.28" y2="42.6"/>
  </g>
  <rect x="6.00" y="50" width="88.00" height="20"/>
  <g>
    <line x1="7.692" y1="50" x2="7.692" y2="70"/>
    <line x1="9.385" y1="50" x2="9.385" y2="70"/>
    <line x1="11.077" y1="50" x2="11.077" y2="70"/>
    <line x1="12.769" y1="50" x2="12.769" y2="70"/>
    <line x1="14.462" y1="50" x2="14.462" y2="70"/>
    <line x1="16.154" y1="50" x2="16.154" y2="70"/>
    <line x1="17.846" y1="50" x2="17.846" y2="70"/>
    <line x1="19.538" y1="50" x2="19.538" y2="70"/>
    <line x1="21.231" y1="50" x2="21.231" y2="70"/>
    <line x1="22.923" y1="50" x2="22.923" y2="70"/>
    <line x1="24.615" y1="50" x2="24.615" y2="70"/>
    <line x1="26.308" y1="50" x2="26.308" y2="70"/>
    <line x1="28.000" y1="50" x2="28.000" y2="70"/>
    <line x1="29.692" y1="50" x2="29.692" y2="70"/>
    <line x1="31.385" y1="50" x2="31.385" y2="70"/>
    <line x1="33.077" y1="50" x2="33.077" y2="70"/>
    <line x1="34.769" y1="50" x2="34.769" y2="70"/>
    <line x1="36.462" y1="50" x2="36.462" y2="70"/>
    <line x1="38.154" y1="50" x2="38.154" y2="70"/>
    <line x1="39.846" y1="50" x2="39.846" y2="70"/>
    <line x1="41.538" y1="50" x2="41.538" y2="70"/>
    <line x1="43.231" y1="50" x2="43.231" y2="70"/>
    <line x1="44.923" y1="50" x2="44.923" y2="70"/>
    <line x1="46.615" y1="50" x2="46.615" y2="70"/>
    <line x1="48.308" y1="50" x2="48.308" y2="70"/>
    <line x1="50.000" y1="50" x2="50.000" y2="70"/>
    <line x1="51.692" y1="50" x2="51.692" y2="70"/>
    <line x1="53.385" y1="50" x2="53.385" y2="70"/>
    <line x1="55.077" y1="50" x2="55.077" y2="70"/>
    <line x1="56.769" y1="50" x2="56.769" y2="70"/>
    <line x1="58.462" y1="50" x2="58.462" y2="70"/>
    <line x1="60.154" y1="50" x2="60.154" y2="70"/>
    <line x1="61.846" y1="50" x2="61.846" y2="70"/>
    <line x1="63.538" y1="50" x2="63.538" y2="70"/>
    <line x1="65.231" y1="50" x2="65.231" y2="70"/>
    <line x1="66.923" y1="50" x2="66.923" y2="70"/>
    <line x1="68.615" y1="50" x2="68.615" y2="70"/>
    <line x1="70.308" y1="50" x2="70.308" y2="70"/>
    <line x1="72.000" y1="50" x2="72.000" y2="70"/>
    <line x1="73.692" y1="50" x2="73.692" y2="70"/>
    <line x1="75.385" y1="50" x2="75.385" y2="70"/>
    <line x1="77.077" y1="50" x2="77.077" y2="70"/>
    <line x1="78.769" y1="50" x2="78.769" y2="70"/>
    <line x1="80.462" y1="50" x2="80.462" y2="70"/>
    <line x1="82.154" y1="50" x2="82.154" y2="70"/>
    <line x1="83.846" y1="50" x2="83.846" y2="70"/>
    <line x1="85.538" y1="50" x2="85.538" y2="70"/>
    <line x1="87.231" y1="50" x2="87.231" y2="70"/>
    <line x1="88.923" y1="50" x2="88.923" y2="70"/>
    <line x1="90.615" y1="50" x2="90.615" y2="70"/>
    <line x1="92.308" y1="50" x2="92.308" y2="70"/>
  </g>
  <g fill="currentColor" stroke="none">
    <rect x="7.227" y="50" width="0.931" height="11.600" rx="0.3"/>
    <rect x="10.612" y="50" width="0.931" height="11.600" rx="0.3"/>
    <rect x="12.304" y="50" width="0.931" height="11.600" rx="0.3"/>
    <rect x="15.688" y="50" width="0.931" height="11.600" rx="0.3"/>
    <rect x="17.381" y="50" width="0.931" height="11.600" rx="0.3"/>
    <rect x="19.073" y="50" width="0.931" height="11.600" rx="0.3"/>
    <rect x="22.458" y="50" width="0.931" height="11.600" rx="0.3"/>
    <rect x="24.150" y="50" width="0.931" height="11.600" rx="0.3"/>
    <rect x="27.535" y="50" width="0.931" height="11.600" rx="0.3"/>
    <rect x="29.227" y="50" width="0.931" height="11.600" rx="0.3"/>
    <rect x="30.919" y="50" width="0.931" height="11.600" rx="0.3"/>
    <rect x="34.304" y="50" width="0.931" height="11.600" rx="0.3"/>
    <rect x="35.996" y="50" width="0.931" height="11.600" rx="0.3"/>
    <rect x="39.381" y="50" width="0.931" height="11.600" rx="0.3"/>
    <rect x="41.073" y="50" width="0.931" height="11.600" rx="0.3"/>
    <rect x="42.765" y="50" width="0.931" height="11.600" rx="0.3"/>
    <rect x="46.150" y="50" width="0.931" height="11.600" rx="0.3"/>
    <rect x="47.842" y="50" width="0.931" height="11.600" rx="0.3"/>
    <rect x="51.227" y="50" width="0.931" height="11.600" rx="0.3"/>
    <rect x="52.919" y="50" width="0.931" height="11.600" rx="0.3"/>
    <rect x="54.612" y="50" width="0.931" height="11.600" rx="0.3"/>
    <rect x="57.996" y="50" width="0.931" height="11.600" rx="0.3"/>
    <rect x="59.688" y="50" width="0.931" height="11.600" rx="0.3"/>
    <rect x="63.073" y="50" width="0.931" height="11.600" rx="0.3"/>
    <rect x="64.765" y="50" width="0.931" height="11.600" rx="0.3"/>
    <rect x="66.458" y="50" width="0.931" height="11.600" rx="0.3"/>
    <rect x="69.842" y="50" width="0.931" height="11.600" rx="0.3"/>
    <rect x="71.535" y="50" width="0.931" height="11.600" rx="0.3"/>
    <rect x="74.919" y="50" width="0.931" height="11.600" rx="0.3"/>
    <rect x="76.612" y="50" width="0.931" height="11.600" rx="0.3"/>
    <rect x="78.304" y="50" width="0.931" height="11.600" rx="0.3"/>
    <rect x="81.688" y="50" width="0.931" height="11.600" rx="0.3"/>
    <rect x="83.381" y="50" width="0.931" height="11.600" rx="0.3"/>
    <rect x="86.765" y="50" width="0.931" height="11.600" rx="0.3"/>
    <rect x="88.458" y="50" width="0.931" height="11.600" rx="0.3"/>
    <rect x="90.150" y="50" width="0.931" height="11.600" rx="0.3"/>
  </g>
</svg>
